<svg width="32" height="32" viewBox="0 0 32 32" fill="none" xmlns="http://www.w3.org/2000/svg">
<path d="M19.1158 13.2962H28.5872C29.7477 13.2962 30.6682 12.2558 30.4814 11.1087C29.5476 5.42637 25.0788 0.944546 19.396 0.0241718C18.2488 -0.162571 17.2083 0.757803 17.2083 1.91828V11.3888C17.2083 12.4426 18.062 13.2962 19.1158 13.2962V13.2962Z" fill="white" style="fill:white;fill-opacity:1;"/>
<path d="M15.4208 17.4986C14.6471 16.725 14.2069 15.6579 14.2069 14.5641V4.89351C14.2069 3.73304 13.1797 2.826 12.0325 3.01274C5.14913 4.1332 0.0133595 10.4691 0.840428 17.8454C0.907127 18.4724 1.04046 19.0859 1.1872 19.6862C2.45448 18.8458 3.96194 18.3523 5.5894 18.3523C9.9782 18.3523 13.5399 21.9138 13.5399 26.3022C13.5399 27.5027 13.2597 28.6498 12.7795 29.6769C12.7928 29.6769 12.8196 29.6769 12.8329 29.6769C16.2746 30.0104 19.4761 29.0633 22.024 27.2493C22.9845 26.569 23.0779 25.1684 22.2375 24.3281L15.4208 17.512V17.4986Z" fill="white" style="fill:white;fill-opacity:1;"/>
<path d="M30.0946 16.2832H23.2779C21.5837 16.2832 20.7434 18.324 21.9306 19.5245L26.7596 24.3531C27.5734 25.1668 28.9473 25.0868 29.6143 24.1531C30.8015 22.4991 31.6286 20.5516 31.9755 18.4574C32.1622 17.3103 31.2552 16.2832 30.0946 16.2832V16.2832Z" fill="white" style="fill:white;fill-opacity:1;"/>
<path d="M5.60266 20.6735C4.242 20.6735 3.00142 21.1804 2.04095 21.9807C0.800347 23.0078 0 24.5417 0 26.2758C0 29.3704 2.50783 31.8914 5.61601 31.8914C7.65701 31.8914 9.4179 30.7976 10.405 29.1703C10.912 28.3299 11.2321 27.3429 11.2321 26.2758C11.2321 23.1812 8.72419 20.6602 5.61601 20.6602L5.60266 20.6735Z" fill="white" style="fill:white;fill-opacity:1;"/>
</svg>
