<svg width="86" height="50" viewBox="0 0 86 50" fill="none" xmlns="http://www.w3.org/2000/svg">
<path d="M60.901 27.0029L64.8188 23.0052C65.4666 22.3442 66.5257 22.3442 67.1735 23.0052L71.1016 27.0029" stroke="white" style="stroke:white;stroke-opacity:1;" stroke-width="1.75" stroke-linecap="round" stroke-linejoin="round"/>
<path d="M30.142 23.1412H36.6536C37.4515 23.1412 38.0842 22.4259 37.9559 21.6372C37.3139 17.7306 34.2415 14.6494 30.3346 14.0166C29.5459 13.8882 28.8306 14.521 28.8306 15.3188V21.8298C28.8306 22.5543 29.4175 23.1412 30.142 23.1412V23.1412Z" fill="white" style="fill:white;fill-opacity:1;"/>
<path d="M27.6018 26.0303C27.0698 25.4984 26.7672 24.7648 26.7672 24.0128V17.3643C26.7672 16.5665 26.061 15.9429 25.2723 16.0713C20.54 16.8416 17.0091 21.1975 17.5777 26.2687C17.6236 26.6997 17.7153 27.1216 17.8161 27.5343C18.6874 26.9565 19.7238 26.6172 20.8427 26.6172C23.86 26.6172 26.3086 29.0657 26.3086 32.0828C26.3086 32.9081 26.116 33.6968 25.7858 34.4029C25.795 34.4029 25.8134 34.4029 25.8226 34.4029C28.1887 34.6321 30.3897 33.981 32.1414 32.7339C32.8018 32.2662 32.866 31.3033 32.2882 30.7256L27.6018 26.0395V26.0303Z" fill="white" style="fill:white;fill-opacity:1;"/>
<path d="M37.6899 25.1947H33.0034C31.8386 25.1947 31.2609 26.5978 32.0771 27.4231L35.3971 30.7428C35.9565 31.3022 36.9011 31.2472 37.3597 30.6052C38.1759 29.4681 38.7445 28.1292 38.983 26.6895C39.1114 25.9008 38.4878 25.1947 37.6899 25.1947V25.1947Z" fill="white" style="fill:white;fill-opacity:1;"/>
<path d="M20.8518 28.213C19.9164 28.213 19.0635 28.5615 18.4032 29.1117C17.5502 29.8178 17 30.8724 17 32.0646C17 34.1921 18.7241 35.9253 20.861 35.9253C22.2642 35.9253 23.4748 35.1734 24.1535 34.0546C24.502 33.4768 24.7221 32.7982 24.7221 32.0646C24.7221 29.9371 22.9979 28.2039 20.861 28.2039L20.8518 28.213Z" fill="white" style="fill:white;fill-opacity:1;"/>
</svg>
