<svg width="120" height="32" viewBox="0 0 120 32" fill="none" xmlns="http://www.w3.org/2000/svg">
<path d="M14.5718 0C22.6192 0.00011113 29.1429 7.01308 29.1431 15.6641C29.1431 24.3152 22.6193 31.329 14.5718 31.3291C13.8649 31.3291 13.1697 31.2735 12.4897 31.1689V17.4326L22.564 15.5449C22.8678 15.488 23.0202 15.4596 23.1343 15.3809C23.2346 15.3115 23.3143 15.2153 23.3638 15.1035C23.4199 14.9764 23.4194 14.8203 23.4194 14.5098V10.1748C23.4194 9.75822 23.4197 9.54968 23.3354 9.40332C23.2615 9.27501 23.1446 9.1781 23.0054 9.12891C22.8465 9.07288 22.6418 9.11116 22.2339 9.18848L12.4897 11.0352V4.84375C12.4897 4.41129 12.4899 4.19458 12.4009 4.04395C12.3228 3.91201 12.1995 3.81266 12.0542 3.76367C11.8885 3.70788 11.677 3.75235 11.2544 3.8418L7.47314 4.64258C7.18409 4.70376 7.03924 4.73396 6.93115 4.81055C6.83588 4.87816 6.76085 4.97095 6.71436 5.07812C6.66168 5.19976 6.66162 5.34796 6.66162 5.64355V12.1396L0.155762 13.373C1.18724 5.80807 7.24824 0 14.5718 0ZM6.66162 28.8213C3.66267 26.7334 1.423 23.4933 0.484863 19.6836L6.66162 18.5254V28.8213Z" fill="white" style="fill:white;fill-opacity:1;"/>
<path fill-rule="evenodd" clip-rule="evenodd" d="M38.2541 28.2086V31.3287H37.4695V24.1678H42.4654V24.9146H38.2541V27.4721H42.0185V28.2086H38.2541ZM50.792 30.5921V31.3287H45.796V24.1678H50.7431V24.9044H46.5684V27.3493H50.3031V28.0858H46.5684V30.5921H50.792ZM58.2859 31.3287V30.5819H54.8179V24.1678H54.1226V31.3287H58.2859ZM65.7798 30.5819V31.3287H61.6165V24.1678H62.3118V30.5819H65.7798ZM72.4317 31.3287C72.9293 31.3287 73.3833 31.2314 73.7938 31.0369C74.2043 30.8424 74.5557 30.5819 74.848 30.2555C75.1404 29.9292 75.3674 29.5484 75.5291 29.1132C75.6908 28.678 75.7717 28.223 75.7717 27.7483V27.7285C75.7717 27.2537 75.6924 26.8004 75.5337 26.3685C75.3751 25.9366 75.1497 25.5575 74.8574 25.2311C74.565 24.9047 74.2152 24.6459 73.8078 24.4547C73.4004 24.2635 72.9479 24.1678 72.4504 24.1678C71.9528 24.1678 71.4988 24.2651 71.0883 24.4596C70.6778 24.6541 70.3263 24.9146 70.034 25.241C69.7417 25.5674 69.5147 25.9482 69.353 26.3834C69.1913 26.8185 69.1104 27.2735 69.1104 27.7483V27.768C69.1104 28.2428 69.1897 28.6961 69.3483 29.128C69.5069 29.5599 69.7324 29.939 70.0247 30.2654C70.317 30.5918 70.6669 30.8506 71.0743 31.0419C71.4816 31.2331 71.9341 31.3287 72.4317 31.3287ZM71.4464 30.2199C71.7522 30.3623 72.0868 30.4336 72.4501 30.4336C72.8135 30.4336 73.148 30.3639 73.4538 30.2245C73.7597 30.0851 74.0216 29.8947 74.2396 29.6531C74.4576 29.4115 74.6286 29.1296 74.7528 28.8075C74.8769 28.4854 74.939 28.1385 74.939 27.7668V27.7483C74.939 27.3766 74.8769 27.0282 74.7528 26.7029C74.6286 26.3777 74.4545 26.0943 74.2305 25.8527C74.0064 25.6112 73.7415 25.4191 73.4357 25.2767C73.1299 25.1342 72.7953 25.063 72.4319 25.063C72.0686 25.063 71.734 25.1326 71.4282 25.272C71.1224 25.4114 70.8605 25.6019 70.6425 25.8435C70.4245 26.085 70.2534 26.3669 70.1293 26.689C70.0051 27.0111 69.9431 27.358 69.9431 27.7297V27.7483C69.9431 28.1199 70.0051 28.4684 70.1293 28.7936C70.2534 29.1188 70.4275 29.4022 70.6516 29.6438C70.8756 29.8854 71.1406 30.0774 71.4464 30.2199ZM81.9454 31.3287L83.6819 25.5757L85.4094 31.3287H86.0122L88.2615 24.1881H87.5147L85.7153 30.093L83.9878 24.1678H83.403L81.6755 30.093L79.876 24.1881H79.1023L81.3516 31.3287H81.9454ZM94.3946 31.1894C94.1155 31.2823 93.8109 31.3287 93.4811 31.3287C92.9482 31.3287 92.4612 31.2375 92.0203 31.0552C91.5794 30.8728 91.1591 30.5927 90.7595 30.2148L91.2257 29.6379C91.5747 29.9695 91.9268 30.2164 92.282 30.3789C92.6373 30.5413 93.0465 30.6225 93.5096 30.6225C93.96 30.6225 94.3201 30.5115 94.5897 30.2894C94.8593 30.0673 94.9941 29.7838 94.9941 29.439V29.4191C94.9941 29.26 94.9687 29.1158 94.918 28.9865C94.8672 28.8572 94.7784 28.7395 94.6515 28.6334C94.5246 28.5273 94.3486 28.4312 94.1234 28.345C93.8982 28.2588 93.6111 28.1759 93.2622 28.0964C92.8815 28.0102 92.5501 27.9107 92.2678 27.798C91.9854 27.6853 91.7523 27.5494 91.5683 27.3902C91.3843 27.2311 91.2479 27.0454 91.1591 26.8333C91.0703 26.6211 91.0259 26.3725 91.0259 26.0873V26.0675C91.0259 25.7956 91.0798 25.5437 91.1877 25.3116C91.2955 25.0795 91.4478 24.879 91.6445 24.7099C91.8411 24.5408 92.0727 24.4082 92.3391 24.3121C92.6056 24.2159 92.8974 24.1678 93.2146 24.1678C93.7031 24.1678 94.1297 24.2391 94.4945 24.3817C94.8593 24.5242 95.213 24.7381 95.5556 25.0232L95.1178 25.6299C94.807 25.3646 94.4945 25.1724 94.1805 25.053C93.8665 24.9337 93.5381 24.874 93.1956 24.874C92.7578 24.874 92.4121 24.9817 92.1583 25.1972C91.9046 25.4127 91.7777 25.6796 91.7777 25.9978V26.0177C91.7777 26.1835 91.8031 26.331 91.8538 26.4603C91.9046 26.5896 91.9965 26.7089 92.1298 26.8184C92.263 26.9278 92.447 27.0272 92.6817 27.1167C92.9164 27.2062 93.2178 27.2908 93.5857 27.3703C94.328 27.5427 94.8752 27.7814 95.2272 28.0864C95.5793 28.3914 95.7554 28.8091 95.7554 29.3396V29.3595C95.7554 29.6578 95.6983 29.928 95.5841 30.17C95.4699 30.412 95.3129 30.6192 95.1131 30.7916C94.9132 30.964 94.6737 31.0966 94.3946 31.1894ZM99.7883 31.3287V28.1063H103.38V31.3287H104.082V24.1678H103.38V27.3493H99.7883V24.1678H99.086V31.3287H99.7883ZM108.99 24.1678V31.3287H108.333V24.1678H108.99ZM113.994 31.3287V28.8019H115.615C115.971 28.8019 116.308 28.7525 116.626 28.6536C116.944 28.5547 117.222 28.4064 117.46 28.2086C117.698 28.0108 117.888 27.767 118.027 27.4772C118.167 27.1873 118.237 26.848 118.237 26.4593V26.4389C118.237 26.0842 118.178 25.7671 118.061 25.4875C117.943 25.2079 117.775 24.9709 117.555 24.7765C117.336 24.5822 117.072 24.4321 116.764 24.3264C116.456 24.2207 116.114 24.1678 115.739 24.1678H113.241V31.3287H113.994ZM114.074 27.7483H115.652C115.914 27.7483 116.153 27.7163 116.369 27.6524C116.585 27.5884 116.77 27.4969 116.925 27.3777C117.081 27.2586 117.199 27.1176 117.281 26.9549C117.363 26.7921 117.404 26.609 117.404 26.4056V26.3882C117.404 25.9522 117.248 25.6224 116.935 25.3986C116.621 25.1748 116.206 25.063 115.689 25.063H114.074V27.7483Z" fill="white" style="fill:white;fill-opacity:1;"/>
<path fill-rule="evenodd" clip-rule="evenodd" d="M43.2298 19.098C44.722 19.098 46.047 18.8264 47.2049 18.2834C48.3629 17.7404 49.3615 17.0846 50.2008 16.316V8.69684H43.1133V12.0302H46.727V14.5365C45.81 15.2383 44.6831 15.5891 43.3464 15.5891C42.6159 15.5891 41.9514 15.4513 41.353 15.1756C40.7546 14.8999 40.2339 14.5114 39.791 14.0102C39.348 13.5089 39.006 12.9199 38.7651 12.2432C38.5242 11.5665 38.4038 10.8272 38.4038 10.0252V9.97505C38.4038 9.22316 38.5242 8.51722 38.7651 7.85723C39.006 7.19724 39.3402 6.62079 39.7676 6.12789C40.1951 5.63498 40.6925 5.24233 41.2598 4.94993C41.8271 4.65753 42.4371 4.51133 43.0899 4.51133C43.5562 4.51133 43.9837 4.5531 44.3722 4.63664C44.7608 4.72019 45.1222 4.83715 45.4564 4.98753C45.7905 5.1379 46.113 5.3217 46.4239 5.53891C46.7348 5.75612 47.0456 6.00675 47.3565 6.2908L49.618 3.35843C49.1983 2.97414 48.7631 2.63161 48.3124 2.33085C47.8616 2.0301 47.3798 1.77947 46.8669 1.57897C46.354 1.37846 45.7983 1.22391 45.1999 1.1153C44.6015 1.0067 43.937 0.952393 43.2065 0.952393C41.9631 0.952393 40.8207 1.19049 39.7793 1.66669C38.7379 2.14288 37.8364 2.79452 37.0748 3.6216C36.3132 4.44867 35.7187 5.40942 35.2913 6.50383C34.8639 7.59825 34.6501 8.77203 34.6501 10.0252V10.0753C34.6501 11.3786 34.86 12.5816 35.2796 13.6844C35.6993 14.7871 36.286 15.7395 37.0399 16.5415C37.7937 17.3436 38.6952 17.9701 39.7443 18.4213C40.7935 18.8724 41.9553 19.098 43.2298 19.098ZM57.2418 18.7972V13.1831H60.0628L63.56 18.7972H67.7565L63.7698 12.5315C64.8112 12.1138 65.6544 11.4579 66.2994 10.564C66.9444 9.67012 67.2669 8.51305 67.2669 7.09281V7.04269C67.2669 5.37182 66.8007 4.03513 65.8681 3.03262C64.7645 1.8463 63.1792 1.25315 61.1119 1.25315H53.6514V18.7972H57.2418ZM57.2418 9.77455H60.8788C61.7648 9.77455 62.4448 9.54898 62.9188 9.09785C63.3929 8.64672 63.6299 8.0452 63.6299 7.29332V7.24319C63.6299 6.40776 63.3812 5.78119 62.8838 5.36347C62.3865 4.94575 61.6948 4.7369 60.8089 4.7369H57.2418V9.77455ZM72.7691 18.7972L74.2612 14.8623H81.1623L82.6544 18.7972H86.408L79.4137 1.12783H76.1031L69.1088 18.7972H72.7691ZM77.7118 5.76448L75.5435 11.4538H79.88L77.7118 5.76448ZM96.5731 19.098C97.3658 19.098 98.0808 19.0269 98.718 18.8849C99.3553 18.7429 99.942 18.534 100.478 18.2584C101.014 17.9827 101.508 17.6527 101.959 17.2684C102.409 16.8841 102.845 16.4496 103.264 15.9651L100.98 13.4839C100.342 14.1188 99.7011 14.62 99.0561 14.9876C98.411 15.3552 97.6222 15.539 96.6897 15.539C95.9902 15.539 95.3491 15.3928 94.7662 15.1004C94.1834 14.808 93.686 14.4112 93.2741 13.9099C92.8622 13.4087 92.5397 12.8239 92.3066 12.1555C92.0734 11.4872 91.9569 10.7771 91.9569 10.0252V9.97505C91.9569 9.22316 92.0734 8.51722 92.3066 7.85723C92.5397 7.19724 92.8661 6.61662 93.2858 6.11536C93.7054 5.6141 94.2067 5.22145 94.7896 4.9374C95.3724 4.65335 96.0058 4.51133 96.6897 4.51133C97.5134 4.51133 98.2556 4.68677 98.9162 5.03765C99.5768 5.38853 100.226 5.87308 100.863 6.4913L103.148 3.65919C102.775 3.25818 102.371 2.89059 101.935 2.55642C101.5 2.22225 101.026 1.9382 100.513 1.70428C100 1.47036 99.4291 1.28657 98.7996 1.1529C98.1701 1.01923 97.4746 0.952393 96.713 0.952393C95.454 0.952393 94.3038 1.19049 93.2625 1.66669C92.2211 2.14288 91.3274 2.79452 90.5813 3.6216C89.8352 4.44867 89.2524 5.40942 88.8327 6.50383C88.4131 7.59825 88.2032 8.77203 88.2032 10.0252V10.0753C88.2032 11.3284 88.4131 12.5064 88.8327 13.6092C89.2524 14.7119 89.8352 15.6685 90.5813 16.4789C91.3274 17.2893 92.2133 17.9284 93.2391 18.3962C94.265 18.864 95.3763 19.098 96.5731 19.098ZM118.559 15.3636V18.7972H106.132V1.25315H118.442V4.68677H109.699V8.24571H117.393V11.6793H109.699V15.3636H118.559Z" fill="white" style="fill:white;fill-opacity:1;"/>
</svg>
